<svg width="413" height="382" viewBox="0 0 413 382" fill="none" xmlns="http://www.w3.org/2000/svg">
<path d="M109 282.085L107.467 280.11L105.439 281.684L107.066 283.67L109 282.085ZM219.674 32.0688L217.984 52.4112L238.326 54.1011L240.016 33.7588L219.674 32.0688ZM122.008 60.8802C121.895 62.2563 122.919 63.4635 124.295 63.5766L146.72 65.4197C148.096 65.5328 149.303 64.5089 149.416 63.1329C149.529 61.7568 148.505 60.5496 147.129 60.4365L127.196 58.7982L128.835 38.8654C128.948 37.4893 127.924 36.2821 126.548 36.169C125.172 36.0559 123.965 37.0797 123.852 38.4558L122.008 60.8802ZM355.5 23.2267L354.173 25.3456L354.227 25.3794L354.283 25.4103L355.5 23.2267ZM407.5 131.227L405.077 130.611L407.5 131.227ZM151.5 181L152.506 183.289L151.5 181ZM398 217.727L395.615 218.476L398 217.727ZM286.5 375.085L287.118 377.507L286.5 375.085ZM110.533 284.06C188.558 223.485 225.169 170.694 239.034 129.075C252.905 87.442 244 56.934 230.908 41.4696L227.092 44.7003C238.833 58.5693 247.728 87.1613 234.291 127.495C220.848 167.843 185.042 219.884 107.467 280.11L110.533 284.06ZM126.117 62.9916C220.037 -16.6617 318.039 2.72114 354.173 25.3456L356.827 21.1078C318.961 -2.60104 218.563 -21.9683 122.883 59.1783L126.117 62.9916ZM355.5 23.2267C354.283 25.4103 354.282 25.41 354.282 25.4097C354.282 25.4099 354.282 25.4098 354.282 25.41C354.283 25.4105 354.285 25.4116 354.288 25.4133C354.294 25.4166 354.304 25.4223 354.318 25.4303C354.346 25.4464 354.391 25.4718 354.452 25.5066C354.572 25.5762 354.756 25.6831 354.998 25.8272C355.482 26.1154 356.198 26.5519 357.109 27.1347C358.93 28.3005 361.526 30.0498 364.594 32.3657C370.734 37.0019 378.73 43.884 386.175 52.8715C401.051 70.8308 413.618 97.0294 405.077 130.611L409.923 131.843C418.982 96.2241 405.549 68.4227 390.025 49.682C382.27 40.3195 373.966 33.1766 367.606 28.3753C364.424 25.9723 361.72 24.1498 359.804 22.9234C358.846 22.3101 358.084 21.8455 357.557 21.5315C357.293 21.3745 357.088 21.2551 356.947 21.1737C356.876 21.1329 356.821 21.1017 356.783 21.0799C356.763 21.069 356.748 21.0605 356.737 21.0544C356.732 21.0513 356.728 21.0488 356.724 21.0469C356.723 21.046 356.721 21.045 356.72 21.0446C356.718 21.0438 356.717 21.0431 355.5 23.2267ZM405.077 130.611C399.91 150.925 378.479 166.138 348.781 176.918C319.278 187.626 282.493 193.632 248.176 196.115C213.848 198.598 182.223 197.54 163.075 194.238C158.295 193.414 154.366 192.462 151.397 191.42C148.326 190.341 146.654 189.29 145.974 188.49C145.827 188.317 145.759 188.192 145.729 188.12C145.702 188.055 145.7 188.023 145.7 188.011C145.7 188.007 145.692 187.8 146.045 187.347C146.83 186.339 148.762 184.933 152.506 183.289L150.494 178.711C146.607 180.419 143.69 182.233 142.1 184.275C141.265 185.347 140.689 186.621 140.701 188.052C140.712 189.495 141.319 190.734 142.164 191.728C143.753 193.598 146.517 195.005 149.741 196.137C153.069 197.306 157.296 198.315 162.226 199.165C181.917 202.561 213.982 203.602 248.536 201.102C283.1 198.601 320.388 192.542 350.486 181.618C380.389 170.764 404.09 154.778 409.923 131.843L405.077 130.611ZM152.506 183.289C195.504 164.399 249.681 151.276 296.47 153.964C343.25 156.651 381.961 175.032 395.615 218.476L400.385 216.977C385.841 170.7 344.552 151.718 296.757 148.972C248.97 146.227 193.996 159.601 150.494 178.711L152.506 183.289ZM395.615 218.476C396.864 222.45 398.152 232.207 397.418 245.217C396.688 258.156 393.968 274.11 387.369 290.461C374.212 323.06 345.568 357.441 285.882 372.663L287.118 377.507C348.432 361.871 378.288 326.323 392.006 292.332C398.844 275.389 401.655 258.883 402.41 245.498C403.161 232.184 401.886 221.754 400.385 216.977L395.615 218.476ZM285.882 372.663C240.254 384.299 201.577 367.485 171.663 344.524C141.699 321.524 120.877 292.635 110.934 280.5L107.066 283.67C116.789 295.535 138.072 325.042 168.619 348.49C199.216 371.976 239.455 389.663 287.118 377.507L285.882 372.663Z" fill="black"/>
<path d="M119.826 67.1177C38.3301 129.266 -12.838 177.86 38.3286 218.486C75.5 248 99.8659 138.125 119.826 67.1177Z" stroke="black" stroke-width="5"/>
<path d="M66 36C124.4 44.8 153 96 160 120.5" stroke="black" stroke-width="5"/>
<path d="M49.7338 166.038L30.3446 185.824L57.6554 195.176L54.4642 167.658L49.7338 166.038ZM53.585 170.203C66.9528 139.18 87.41 121.471 95.4411 111.575L91.5589 108.425C84.1271 117.582 62.7258 136.354 48.9932 168.224L53.585 170.203Z" fill="black"/>
</svg>
